PathFileType	4	(X/Y/Z)	C:/Users/opensim2020/Desktop/walking_exp_matlab/subject02_walking04_straight_01.trc																																																																																																																												
DataRate	CameraRate	NumFrames	NumMarkers	Units	OrigDataRate	OrigDataStartFrame	OrigNumFrames																																																																																																																								
100	100	5	42	mm	100	802	302																																																																																																																								
Frame#	Time	LFHD			RFHD			LBHD			RBHD			C7			T10			CLAV			STRN			RBAK			LSHO			LUPA			LELB			LFRM			LWRA			LWRB			LFIN			RSHO			RUPA			RELB			RFRM			RWRA			RWRB			RFIN			LASI			RASI			LPSI			RPSI			LTHI			LKNE			LTIB			LANK			LHEE			LTOE			RTHI			RKNE			RTIB			RANK			RHEE			RTOE			*39			*40			*41		
		X1	Y1	Z1	X2	Y2	Z2	X3	Y3	Z3	X4	Y4	Z4	X5	Y5	Z5	X6	Y6	Z6	X7	Y7	Z7	X8	Y8	Z8	X9	Y9	Z9	X10	Y10	Z10	X11	Y11	Z11	X12	Y12	Z12	X13	Y13	Z13	X14	Y14	Z14	X15	Y15	Z15	X16	Y16	Z16	X17	Y17	Z17	X18	Y18	Z18	X19	Y19	Z19	X20	Y20	Z20	X21	Y21	Z21	X22	Y22	Z22	X23	Y23	Z23	X24	Y24	Z24	X25	Y25	Z25	X26	Y26	Z26	X27	Y27	Z27	X28	Y28	Z28	X29	Y29	Z29	X30	Y30	Z30	X31	Y31	Z31	X32	Y32	Z32	X33	Y33	Z33	X34	Y34	Z34	X35	Y35	Z35	X36	Y36	Z36	X37	Y37	Z37	X38	Y38	Z38	X39	Y39	Z39	X40	Y40	Z40	X41	Y41	Z41	X42	Y42	Z42
																																																																																																																															
76	0.75	-977.21039	1737.68311	-995.86121	-982.40906	1716.37598	-850.07068	-1096.39685	1646.39355	-1010.25934	-1113.39771	1620.96265	-870.83136	-1145.83496	1519.74341	-936.77063	-1229.18384	1253.8313	-931.9679	-1012.21686	1438.21118	-950.27399	-980.12805	1261.72778	-938.15216	-1216.35095	1357.07654	-865.81238	-1073.54773	1484.10901	-1119.42578	-1126.44666	1294.41077	-1204.72473	-1165.43823	1158.89746	-1219.20374	-1184.64221	1027.64771	-1239.07483	-1152.29675	892.96021	-1215.74475	-1199.66589	905.26648	-1245.07104	-1191.76587	839.49963	-1252.46265	-1054.83215	1481.83972	-754.42847	-1058.13855	1292.3717	-661.3194	-1018.68231	1148.74329	-644.76202	-958.10382	1043.30115	-636.82001	-878.23541	937.86499	-668.80792	-918.74414	918.51068	-633.39221	-861.85376	874.05096	-635.71741	-1004.94641	981.64404	-1061.91943	-1021.12183	959.34869	-804.52496	-1218.92285	1027.41833	-993.091	-1229.37061	1025.72229	-878.94147	-1022.81653	682.56952	-1149.84375	-988.41534	483.84692	-1125.54138	-970.6817	291.45999	-1135.07129	-873.09979	86.29697	-1132.71924	-887.53223	52.77861	-1077.26758	-714.98407	84.7635	-1162.13708	-1145.92004	660.1402	-764.49054	-1185.59729	454.017	-812.09875	-1263.51526	282.15375	-812.01886	-1315.14539	95.45038	-856.75696	-1355.23486	44.41153	-915.27252	-1170.70325	29.48849	-836.43378	-1090.49475	1785.91956	-908.79364	2845.70874	1033.90698	-3357.53491	NaN	NaN	NaN
77	0.76	-969.95087	1736.77246	-997.25281	-974.94659	1715.42151	-852.06628	-1089.00024	1644.83289	-1011.79004	-1105.37134	1619.26428	-872.34296	-1138.15186	1518.45557	-938.54395	-1221.11707	1252.45984	-934.039	-1004.35083	1437.00342	-951.75476	-972.14307	1260.55042	-939.44458	-1209.29504	1356.24475	-867.85571	-1065.27869	1482.85913	-1121.12817	-1117.76978	1292.92102	-1206.28113	-1156.88208	1157.36499	-1220.43762	-1176.49976	1026.35889	-1240.38782	-1145.01624	891.48621	-1216.54541	-1192.06006	903.73486	-1246.0011	-1184.63806	838.06732	-1253.46338	-1047.66614	1480.62512	-755.92999	-1050.76221	1290.93811	-662.98297	-1011.73206	1147.27991	-646.38281	-951.17999	1041.74023	-638.66132	-871.41656	936.32355	-670.05188	-912.12604	917.00116	-634.8103	-855.37946	872.50342	-636.77344	-996.10205	980.08679	-1062.68652	-1013.38916	958.49512	-805.23724	-1210.53857	1025.97925	-994.86951	-1221.2605	1024.44995	-880.86066	-1012.44873	681.32446	-1150.2655	-977.49609	483.09216	-1126.35474	-958.98285	291.06531	-1136.68262	-860.40369	86.20005	-1134.34863	-875.06451	51.89277	-1079.31396	-702.0564	86.04354	-1162.21338	-1140.31018	659.86774	-764.9931	-1181.33643	453.90054	-812.27179	-1261.25781	282.91107	-812.01019	-1314.63367	96.42613	-856.59766	-1355.28369	45.86415	-915.02173	-1170.85083	29.4217	-836.34686	-1083.71924	1784.60535	-910.50562	2845.77637	1033.85034	-3357.33203	NaN	NaN	NaN
78	0.77	-963.03839	1735.99146	-999.13953	-967.69098	1714.60681	-853.78577	-1077.65466	1642.17468	-1014.11688	-1098.25208	1617.88818	-873.64972	-1130.32581	1517.09692	-940.47131	-1212.97424	1251.12122	-936.12866	-996.26678	1435.84253	-953.47992	-963.99152	1259.42664	-941.0213	-1200.88245	1354.44458	-870.13782	-1056.88379	1481.55505	-1122.9386	-1109.07104	1291.45386	-1208.01636	-1148.46887	1156.13293	-1221.78772	-1168.4187	1025.11731	-1241.41223	-1137.47473	890.09619	-1217.40051	-1184.32483	902.58698	-1247.30518	-1177.3186	836.44055	-1254.09705	-1040.21729	1479.31738	-757.59131	-1043.87878	1289.47937	-664.99915	-1004.85803	1145.78723	-648.14478	-945.18738	1040.00867	-640.3866	-865.01849	934.58997	-671.40979	-905.77081	915.31085	-636.30908	-849.1853	870.75311	-638.10504	-987.17688	978.52881	-1063.75793	-1005.25641	957.59052	-806.22717	-1201.94006	1024.52979	-996.76392	-1213.09192	1023.26691	-882.68164	-1001.4599	680.38727	-1150.97278	-966.15479	482.61496	-1127.46118	-947.53778	290.57684	-1138.46826	-849.52643	85.53221	-1135.28479	-864.75714	51.06219	-1080.3678	-691.18402	85.94145	-1162.09753	-1134.31604	659.52936	-765.54327	-1177.22534	453.9068	-812.28619	-1258.92322	283.69	-812.0777	-1314.12073	97.58438	-856.31171	-1355.18274	47.63087	-914.57977	-1170.65308	29.33233	-836.09625	-1077.04138	1782.9115	-912.35767	2845.13403	1033.70459	-3360.13232	NaN	NaN	NaN
79	0.78	-955.77136	1735.09692	-1001.27393	-960.37445	1713.90137	-855.6344	-1073.92236	1641.80444	-1015.26056	-1089.69885	1616.19397	-875.69055	-1122.3822	1515.76892	-942.51025	-1204.72058	1249.81189	-938.18549	-988.12836	1434.74658	-955.27631	-955.80463	1258.29993	-942.63184	-1192.99207	1353.35254	-872.41382	-1048.45544	1480.32605	-1124.8811	-1100.38733	1290.01306	-1209.83142	-1142.68982	1156.11621	-1222.49829	-1160.02881	1023.81165	-1242.58545	-1129.65967	888.52191	-1218.44165	-1176.24561	901.16663	-1248.67944	-1169.56348	835.05054	-1255.16077	-1032.7218	1478.02649	-759.41412	-1037.11475	1288.10962	-666.91168	-998.02783	1144.3656	-650.03485	-937.81476	1038.3634	-642.65063	-858.77686	932.94971	-673.09406	-899.73181	913.58765	-637.88947	-843.2655	868.90448	-639.4668	-978.14771	977.00323	-1065.16797	-996.96899	956.59692	-807.36407	-1193.31738	1023.17749	-998.47186	-1204.71875	1022.06854	-884.45508	-989.94934	679.8783	-1151.89075	-954.5553	482.27579	-1128.73779	-936.71722	290.09344	-1140.20605	-840.28394	84.46339	-1135.76526	-855.9812	49.84011	-1080.87207	-681.97766	84.62426	-1161.79749	-1128.06689	659.2793	-766.21082	-1173.00659	454.00842	-812.56311	-1256.35132	284.55963	-812.11206	-1313.45886	98.62152	-856.30475	-1354.86035	49.16314	-914.28754	-1170.53552	29.2696	-836.05255	-1070.10291	1781.45227	-914.19043	2845.95264	1033.69751	-3357.59497	NaN	NaN	NaN
80	0.79	-948.78131	1734.3988	-1002.86255	-953.07117	1713.17554	-857.58936	-1062.27612	1639.12061	-1017.79987	-1082.49744	1614.79871	-877.245	-1114.07678	1514.41541	-944.74103	-1196.30383	1248.57214	-940.31219	-979.89734	1433.59387	-957.21552	-947.45905	1257.28491	-944.5683	-1185.06396	1352.12976	-874.74976	-1040.05896	1479.07056	-1126.89319	-1091.55127	1288.54199	-1211.78027	-1130.62415	1153.03589	-1225.0614	-1151.1051	1022.15088	-1244.14478	-1121.4386	887.04242	-1219.62976	-1167.78125	899.76526	-1250.25317	-1161.40576	833.54596	-1256.37854	-1024.98474	1476.71838	-761.2948	-1030.03247	1286.60522	-669.11517	-991.22052	1142.92444	-652.05994	-932.25421	1036.99475	-643.52081	-852.88818	930.7865	-674.49615	-893.9201	911.77026	-639.57983	-837.87579	866.89105	-641.18683	-968.96802	975.68866	-1066.93579	-988.42175	955.64307	-808.67963	-1184.57654	1021.83026	-1000.16852	-1196.14307	1020.85834	-886.21466	-978.08362	679.58008	-1153.18408	-942.95465	481.90729	-1130.05615	-926.64355	289.48196	-1141.63452	-832.44202	83.04831	-1135.97717	-848.69324	48.45438	-1081.40149	-674.32501	82.29576	-1161.15833	-1121.67224	658.8465	-766.89325	-1167.88403	453.67358	-812.7818	-1253.5321	285.35757	-812.32251	-1312.67139	100.06603	-855.98181	-1354.65479	51.12054	-913.92633	-1170.45068	29.24035	-835.85443	-1063.25793	1780.12988	-916.23981	2845.75562	1033.92627	-3357.30737	NaN	NaN	NaN
